<?xml version="1.0" encoding="utf-8"?>
<!-- Generator: Adobe Illustrator 27.7.0, SVG Export Plug-In . SVG Version: 6.00 Build 0)  -->
<svg version="1.1" id="Layer_2" xmlns="http://www.w3.org/2000/svg" xmlns:xlink="http://www.w3.org/1999/xlink" x="0px" y="0px"
	 viewBox="0 0 1363.1 579.9" style="enable-background:new 0 0 1363.1 579.9;" xml:space="preserve">
<style type="text/css">
	.st0{fill:#173C58;}
	.st1{fill:#CD1719;}
</style>
<g>
	<g>
		<path class="st0" d="M331.4,246.3c-0.4-7.5-1.9-11.8-13.9-15.7c-26.3-8.6-73.6-8.5-73.6-8.5s-9.1,61.7,34.4,104.9
			c5-33,18.3-45.7,38.5-51c11.1-3,24.3-3.5,32.1-0.9c8.4,2.8,10.9,9,10.9,9c4.6-9.5,6.7-20.5-3.6-27.2
			C349.2,252.2,339.1,248.6,331.4,246.3z M315.2,250.4c-3.4,0.1-10.5-7.3-13.3-10.5c7.3-0.5,15.4,1.7,21.3,6
			C323.2,245.9,318.6,250.2,315.2,250.4z"/>
		<path class="st1" d="M288.7,462.7c0,0-7.3-44.7-92-85.1C112.5,337.4,73.1,233.2,111,139.7c0,0,38.9-17.1,66-15.7
			c0,0-65.5,151.3,44.9,227.1C304.4,407.5,288.7,462.7,288.7,462.7z"/>
		<path class="st1" d="M297.1,469.3c0,0,21.9-67.8-70.5-129.6c-89.8-60.1-48.3-199.8-20.6-242.4c0,0,49.2-16.8,77.4-9.4
			c0,0-106.1,150.1-21.6,239.1c29.3,30.9,45,59.8,48.2,83.4C315,445.9,297.1,469.3,297.1,469.3z"/>
	</g>
	<g>
		<g>
			<path class="st0" d="M1023,352.3h-30.7v-35.5h96.3v35.5h-30.7v68.8H1023V352.3L1023,352.3z"/>
			<path class="st0" d="M1106.6,316.8h34.9v104.3h-34.9V316.8z"/>
			<polygon class="st0" points="956.4,316.1 921.8,316.1 877.9,421.1 915.1,421.1 920.5,407.1 953.5,407.1 944.7,382.4 929.3,382.4 
				938.8,357 962.5,421.1 1000.4,421.1 			"/>
			<path class="st0" d="M560.1,331.8c-9.5-9.5-22.5-15.3-37-15.3c-27.7,0-50.3,21.5-52.2,48.6h0.1c-0.1,1.2-0.2,2.5-0.2,3.7
				s0.1,2.4,0.1,3.6h-0.1c0.7,9.8,4.1,18.9,9.4,26.5c0,0.1,0.1,0.1,0.1,0.2c0.4,0.6,0.8,1.1,1.2,1.7c0.1,0.1,0.2,0.2,0.3,0.4
				c0.4,0.5,0.8,0.9,1.1,1.4c0.2,0.2,0.3,0.4,0.5,0.5c0.3,0.4,0.7,0.8,1,1.1c0.2,0.2,0.4,0.5,0.7,0.7c0.3,0.3,0.6,0.6,0.9,0.9
				s0.6,0.6,0.9,0.9c0.2,0.2,0.5,0.5,0.7,0.7c0.4,0.3,0.7,0.7,1.1,1c0.2,0.2,0.4,0.3,0.6,0.5c0.5,0.4,0.9,0.8,1.4,1.1
				c0.1,0.1,0.2,0.2,0.4,0.3c0.5,0.4,1.1,0.8,1.6,1.2c0.1,0,0.1,0.1,0.2,0.1c7.6,5.3,16.7,8.8,26.5,9.4v-0.1
				c1.2,0.1,2.4,0.1,3.6,0.1c1.2,0,2.5-0.1,3.7-0.2v0.1c27.2-1.9,48.6-24.5,48.6-52.2C575.5,354.4,569.6,341.3,560.1,331.8z
				 M510.3,382.5c-0.1-0.1-0.3-0.2-0.4-0.4c-0.1-0.1-0.2-0.3-0.4-0.4c-3.2-3.4-5.1-7.9-5.1-12.9c0-10.4,8.5-18.9,18.9-18.9
				c5.2,0,9.9,2.1,13.3,5.5c3.4,3.4,5.5,8.1,5.5,13.3c0,10.4-8.5,18.9-18.9,18.9C518.2,387.6,513.6,385.7,510.3,382.5z"/>
			<polygon class="st0" points="342.3,335.6 342.3,421.1 376.9,421.1 376.9,378.4 			"/>
			<path class="st0" d="M1228.7,377.7c-3.2,5.9-9.4,9.9-16.6,9.9c-10.4,0-18.9-8.5-18.9-18.9s8.4-18.9,18.9-18.9
				c7.2,0,13.4,4,16.6,9.9h34.9c-4.2-24.6-25.7-43.3-51.5-43.3c-28.9,0-52.3,23.4-52.3,52.3s23.4,52.3,52.3,52.3
				c25.8,0,47.2-18.7,51.5-43.3H1228.7L1228.7,377.7z"/>
			<g>
				<polygon class="st0" points="446.6,400.1 446.6,316.8 412.1,316.8 412.1,357.2 				"/>
				<polygon class="st0" points="375,316.8 342.3,316.8 342.3,330.4 415.6,421.1 446.6,421.1 446.6,405.7 				"/>
			</g>
			<path class="st0" d="M729.4,316.8h37l22.3,44.4l22.3-44.4h37l11.4,104.3H824l-6.5-50.4L788.7,421h-0.6l-29.9-51.3l-5.5,51.5
				h-35.3L729.4,316.8z"/>
			<path class="st0" d="M659.6,421.1h39.8l-24.3-35.5c12.7-6.1,20.6-16.7,20.6-31.9v-0.3c0-10.7-3.3-18.5-9.5-24.7
				c-7.3-7.3-19.1-11.9-37.6-11.9h-51v104.3h34.9v-35.5h3.5L659.6,421.1z M647.7,346c8,0,13.3,3.3,13.3,10v0.3
				c0,6.4-5.1,10.1-13.4,10.1h-15V346H647.7L647.7,346z"/>
		</g>
	</g>
</g>
</svg>
